<svg width="137" height="103" viewBox="0 0 137 103" fill="none" xmlns="http://www.w3.org/2000/svg">
<path fill-rule="evenodd" clip-rule="evenodd" d="M119.391 51.8493L68.4534 7.52987L17.5161 51.8493H17.1133L17.3147 52.0246L17.1134 52.1997H17.516L68.4533 96.5192L119.391 52.1997H119.793L119.592 52.0245L119.793 51.8493H119.391Z" fill="#FFFBF5" fill-opacity="0.3"/>
<mask id="path-2-inside-1_314_1602" fill="white">
<path fill-rule="evenodd" clip-rule="evenodd" d="M122.786 51.8359L68.4533 4.1072L14.1202 51.8359H13.6907L13.9054 52.0245L13.6907 52.2132H14.1202L68.4533 99.9419L122.786 52.2132H123.216L123.001 52.0245L123.216 51.8359H122.786Z"/>
</mask>
<path d="M68.4533 4.1072L68.9051 3.59292L68.4533 3.19606L68.0016 3.59292L68.4533 4.1072ZM122.786 51.8359L122.335 52.3502L122.528 52.5204H122.786V51.8359ZM14.1202 51.8359V52.5204H14.3782L14.572 52.3502L14.1202 51.8359ZM13.6907 51.8359V51.1513H11.8742L13.2389 52.3502L13.6907 51.8359ZM13.9054 52.0245L14.3572 52.5388L14.9427 52.0245L14.3572 51.5103L13.9054 52.0245ZM13.6907 52.2132L13.2389 51.6989L11.8742 52.8977H13.6907V52.2132ZM14.1202 52.2132L14.572 51.6989L14.3781 51.5286H14.1202V52.2132ZM68.4533 99.9419L68.0015 100.456L68.4533 100.853L68.9051 100.456L68.4533 99.9419ZM122.786 52.2132V51.5286H122.528L122.335 51.6989L122.786 52.2132ZM123.216 52.2132V52.8977H125.032L123.668 51.6989L123.216 52.2132ZM123.001 52.0245L122.549 51.5102L121.964 52.0245L122.549 52.5388L123.001 52.0245ZM123.216 51.8359L123.668 52.3502L125.032 51.1513H123.216V51.8359ZM68.0016 4.62149L122.335 52.3502L123.238 51.3216L68.9051 3.59292L68.0016 4.62149ZM14.572 52.3502L68.9051 4.62149L68.0016 3.59292L13.6684 51.3216L14.572 52.3502ZM13.6907 52.5204H14.1202V51.1513H13.6907V52.5204ZM14.3572 51.5103L14.1424 51.3216L13.2389 52.3502L13.4537 52.5388L14.3572 51.5103ZM14.1425 52.7275L14.3572 52.5388L13.4537 51.5103L13.2389 51.6989L14.1425 52.7275ZM14.1202 51.5286H13.6907V52.8977H14.1202V51.5286ZM68.9051 99.4276L14.572 51.6989L13.6684 52.7275L68.0015 100.456L68.9051 99.4276ZM122.335 51.6989L68.0015 99.4276L68.9051 100.456L123.238 52.7275L122.335 51.6989ZM123.216 51.5286H122.786V52.8977H123.216V51.5286ZM122.549 52.5388L122.764 52.7275L123.668 51.6989L123.453 51.5102L122.549 52.5388ZM122.764 51.3216L122.549 51.5102L123.453 52.5388L123.668 52.3502L122.764 51.3216ZM122.786 52.5204H123.216V51.1513H122.786V52.5204Z" fill="white" fill-opacity="0.2" mask="url(#path-2-inside-1_314_1602)"/>
<mask id="path-4-inside-2_314_1602" fill="white">
<path fill-rule="evenodd" clip-rule="evenodd" d="M126.182 51.1379L68.4535 1.90735e-06L10.7245 51.1379H10.268L10.4963 51.3401L10.2681 51.5421H10.7244L68.4533 102.68L126.182 51.5421H126.639L126.411 51.3399L126.639 51.1379H126.182Z"/>
</mask>
<path d="M68.4535 1.90735e-06L68.9074 -0.512403L68.4535 -0.914482L67.9996 -0.512403L68.4535 1.90735e-06ZM126.182 51.1379L125.729 51.6503L125.923 51.8224H126.182V51.1379ZM10.7245 51.1379V51.8224H10.9841L11.1784 51.6503L10.7245 51.1379ZM10.268 51.1379V50.4533H8.46289L9.8141 51.6503L10.268 51.1379ZM10.4963 51.3401L10.9502 51.8525L11.5286 51.3401L10.9502 50.8277L10.4963 51.3401ZM10.2681 51.5421L9.81423 51.0297L8.46302 52.2267H10.2681V51.5421ZM10.7244 51.5421L11.1783 51.0297L10.984 50.8576H10.7244V51.5421ZM68.4533 102.68L67.9994 103.192L68.4533 103.594L68.9072 103.192L68.4533 102.68ZM126.182 51.5421V50.8576H125.923L125.728 51.0297L126.182 51.5421ZM126.639 51.5421V52.2267H128.444L127.093 51.0297L126.639 51.5421ZM126.411 51.3399L125.957 50.8275L125.378 51.3399L125.957 51.8523L126.411 51.3399ZM126.639 51.1379L127.093 51.6503L128.444 50.4533H126.639V51.1379ZM67.9996 0.512407L125.729 51.6503L126.636 50.6255L68.9074 -0.512403L67.9996 0.512407ZM11.1784 51.6503L68.9074 0.512407L67.9996 -0.512403L10.2706 50.6255L11.1784 51.6503ZM10.268 51.8224H10.7245V50.4533H10.268V51.8224ZM10.9502 50.8277L10.7219 50.6255L9.8141 51.6503L10.0423 51.8525L10.9502 50.8277ZM10.722 52.0545L10.9502 51.8525L10.0423 50.8277L9.81423 51.0297L10.722 52.0545ZM10.7244 50.8576H10.2681V52.2267H10.7244V50.8576ZM68.9072 102.168L11.1783 51.0297L10.2705 52.0545L67.9994 103.192L68.9072 102.168ZM125.728 51.0297L67.9994 102.168L68.9072 103.192L126.636 52.0545L125.728 51.0297ZM126.639 50.8576H126.182V52.2267H126.639V50.8576ZM125.957 51.8523L126.185 52.0545L127.093 51.0297L126.864 50.8275L125.957 51.8523ZM126.185 50.6255L125.957 50.8275L126.864 51.8523L127.093 51.6503L126.185 50.6255ZM126.182 51.8224H126.639V50.4533H126.182V51.8224Z" fill="white" fill-opacity="0.2" mask="url(#path-4-inside-2_314_1602)"/>
<path d="M126.981 51.34H136.907M0 51.34H11.2948" stroke="white" stroke-opacity="0.2" stroke-width="0.41072"/>
</svg>
